<svg width="10" height="10" viewBox="0 0 10 10" fill="none" xmlns="http://www.w3.org/2000/svg">
<path d="M1.66661 5.00002C1.66661 4.88952 1.71051 4.78354 1.78865 4.7054C1.86679 4.62726 1.97277 4.58336 2.08328 4.58336L6.91244 4.58336L5.12078 2.79586C5.04232 2.7174 4.99824 2.61098 4.99824 2.50002C4.99824 2.38907 5.04232 2.28265 5.12078 2.20419C5.19924 2.12573 5.30565 2.08165 5.41661 2.08165C5.52757 2.08165 5.63398 2.12573 5.71244 2.20419L8.21244 4.70419C8.2515 4.74293 8.2825 4.78901 8.30365 4.83978C8.3248 4.89056 8.33569 4.94502 8.33569 5.00002C8.33569 5.05503 8.3248 5.10949 8.30365 5.16026C8.2825 5.21104 8.2515 5.25712 8.21244 5.29586L5.71244 7.79586C5.67359 7.83471 5.62747 7.86552 5.57671 7.88655C5.52596 7.90757 5.47155 7.9184 5.41661 7.9184C5.36167 7.9184 5.30727 7.90757 5.25651 7.88655C5.20575 7.86552 5.15963 7.83471 5.12078 7.79586C5.08193 7.75701 5.05111 7.71089 5.03009 7.66013C5.00906 7.60937 4.99824 7.55497 4.99824 7.50002C4.99824 7.44508 5.00906 7.39068 5.03009 7.33992C5.05111 7.28916 5.08193 7.24304 5.12078 7.20419L6.91244 5.41669L2.08328 5.41669C1.97277 5.41669 1.86679 5.37279 1.78865 5.29465C1.71051 5.21651 1.66661 5.11053 1.66661 5.00002Z" fill="#A1A1A1"/>
</svg>
