<svg width="20" height="20" viewBox="0 0 20 20" fill="none" xmlns="http://www.w3.org/2000/svg">
<path d="M6.66667 2.5H5C4.33696 2.5 3.70107 2.76339 3.23223 3.23223C2.76339 3.70107 2.5 4.33696 2.5 5V6.66667C2.5 7.32971 2.76339 7.96559 3.23223 8.43443C3.70107 8.90327 4.33696 9.16667 5 9.16667H6.66667C7.32971 9.16667 7.96559 8.90327 8.43443 8.43443C8.90327 7.96559 9.16667 7.32971 9.16667 6.66667V5C9.16667 4.33696 8.90327 3.70107 8.43443 3.23223C7.96559 2.76339 7.32971 2.5 6.66667 2.5ZM7.5 6.66667C7.5 6.88768 7.4122 7.09964 7.25592 7.25592C7.09964 7.4122 6.88768 7.5 6.66667 7.5H5C4.77899 7.5 4.56702 7.4122 4.41074 7.25592C4.25446 7.09964 4.16667 6.88768 4.16667 6.66667V5C4.16667 4.77899 4.25446 4.56702 4.41074 4.41074C4.56702 4.25446 4.77899 4.16667 5 4.16667H6.66667C6.88768 4.16667 7.09964 4.25446 7.25592 4.41074C7.4122 4.56702 7.5 4.77899 7.5 5V6.66667ZM6.66667 10.8333H5C4.33696 10.8333 3.70107 11.0967 3.23223 11.5656C2.76339 12.0344 2.5 12.6703 2.5 13.3333V15C2.5 15.663 2.76339 16.2989 3.23223 16.7678C3.70107 17.2366 4.33696 17.5 5 17.5H6.66667C7.32971 17.5 7.96559 17.2366 8.43443 16.7678C8.90327 16.2989 9.16667 15.663 9.16667 15V13.3333C9.16667 12.6703 8.90327 12.0344 8.43443 11.5656C7.96559 11.0967 7.32971 10.8333 6.66667 10.8333ZM7.5 15C7.5 15.221 7.4122 15.433 7.25592 15.5893C7.09964 15.7455 6.88768 15.8333 6.66667 15.8333H5C4.77899 15.8333 4.56702 15.7455 4.41074 15.5893C4.25446 15.433 4.16667 15.221 4.16667 15V13.3333C4.16667 13.1123 4.25446 12.9004 4.41074 12.7441C4.56702 12.5878 4.77899 12.5 5 12.5H6.66667C6.88768 12.5 7.09964 12.5878 7.25592 12.7441C7.4122 12.9004 7.5 13.1123 7.5 13.3333V15ZM15 2.5H13.3333C12.6703 2.5 12.0344 2.76339 11.5656 3.23223C11.0967 3.70107 10.8333 4.33696 10.8333 5V6.66667C10.8333 7.32971 11.0967 7.96559 11.5656 8.43443C12.0344 8.90327 12.6703 9.16667 13.3333 9.16667H15C15.663 9.16667 16.2989 8.90327 16.7678 8.43443C17.2366 7.96559 17.5 7.32971 17.5 6.66667V5C17.5 4.33696 17.2366 3.70107 16.7678 3.23223C16.2989 2.76339 15.663 2.5 15 2.5ZM15.8333 6.66667C15.8333 6.88768 15.7455 7.09964 15.5893 7.25592C15.433 7.4122 15.221 7.5 15 7.5H13.3333C13.1123 7.5 12.9004 7.4122 12.7441 7.25592C12.5878 7.09964 12.5 6.88768 12.5 6.66667V5C12.5 4.77899 12.5878 4.56702 12.7441 4.41074C12.9004 4.25446 13.1123 4.16667 13.3333 4.16667H15C15.221 4.16667 15.433 4.25446 15.5893 4.41074C15.7455 4.56702 15.8333 4.77899 15.8333 5V6.66667ZM15 10.8333H13.3333C12.6703 10.8333 12.0344 11.0967 11.5656 11.5656C11.0967 12.0344 10.8333 12.6703 10.8333 13.3333V15C10.8333 15.663 11.0967 16.2989 11.5656 16.7678C12.0344 17.2366 12.6703 17.5 13.3333 17.5H15C15.663 17.5 16.2989 17.2366 16.7678 16.7678C17.2366 16.2989 17.5 15.663 17.5 15V13.3333C17.5 12.6703 17.2366 12.0344 16.7678 11.5656C16.2989 11.0967 15.663 10.8333 15 10.8333ZM15.8333 15C15.8333 15.221 15.7455 15.433 15.5893 15.5893C15.433 15.7455 15.221 15.8333 15 15.8333H13.3333C13.1123 15.8333 12.9004 15.7455 12.7441 15.5893C12.5878 15.433 12.5 15.221 12.5 15V13.3333C12.5 13.1123 12.5878 12.9004 12.7441 12.7441C12.9004 12.5878 13.1123 12.5 13.3333 12.5H15C15.221 12.5 15.433 12.5878 15.5893 12.7441C15.7455 12.9004 15.8333 13.1123 15.8333 13.3333V15Z" fill="white"/>
</svg>
