<svg width="15" height="14" viewBox="0 0 15 14" fill="none" xmlns="http://www.w3.org/2000/svg">
<path fill-rule="evenodd" clip-rule="evenodd" d="M14.36 7.15905C14.36 6.66269 14.3155 6.18542 14.2327 5.72723H7.64001V8.43496H11.4073C11.245 9.30996 10.7518 10.0513 10.0105 10.5477V12.3041H12.2727C13.5964 11.0854 14.36 9.29087 14.36 7.15905Z" fill="#DDDDDD"/>
<path fill-rule="evenodd" clip-rule="evenodd" d="M7.64007 14C9.53007 14 11.1146 13.3731 12.2728 12.304L10.0105 10.5477C9.38371 10.9677 8.58189 11.2159 7.64007 11.2159C5.81689 11.2159 4.27371 9.9845 3.72325 8.32996H1.38461V10.1436C2.53643 12.4313 4.90371 14 7.64007 14Z" fill="#DDDDDD"/>
<path fill-rule="evenodd" clip-rule="evenodd" d="M3.7232 8.32999C3.5832 7.90999 3.50365 7.46136 3.50365 6.99999C3.50365 6.53863 3.5832 6.08999 3.7232 5.66999V3.85635H1.38456C0.910469 4.80135 0.640015 5.87045 0.640015 6.99999C0.640015 8.12954 0.910469 9.19863 1.38456 10.1436L3.7232 8.32999Z" fill="#DDDDDD"/>
<path fill-rule="evenodd" clip-rule="evenodd" d="M7.64007 2.78406C8.6678 2.78406 9.59053 3.13724 10.316 3.83088L12.3237 1.82315C11.1114 0.693606 9.52689 -3.05176e-05 7.64007 -3.05176e-05C4.90371 -3.05176e-05 2.53643 1.56861 1.38461 3.85633L3.72325 5.66997C4.27371 4.01543 5.81689 2.78406 7.64007 2.78406Z" fill="#DDDDDD"/>
</svg>
