<svg width="16" height="16" viewBox="0 0 16 16" fill="none" xmlns="http://www.w3.org/2000/svg">
<path d="M13.7733 5.17333C13.7728 4.64308 13.5618 4.13471 13.1866 3.76L12.24 2.81333C11.865 2.4388 11.3566 2.22842 10.8266 2.22842C10.2966 2.22842 9.7883 2.4388 9.41329 2.81333L6.11329 6.14666L5.63996 5.67333C5.51505 5.54916 5.34608 5.47947 5.16996 5.47947C4.99384 5.47947 4.82487 5.54916 4.69996 5.67333C4.63748 5.73531 4.58788 5.80904 4.55403 5.89028C4.52019 5.97152 4.50276 6.05866 4.50276 6.14666C4.50276 6.23467 4.52019 6.32181 4.55403 6.40305C4.58788 6.48429 4.63748 6.55802 4.69996 6.62L5.63996 7.56L6.58663 8.50666L3.52663 11.5267C3.40109 11.6522 3.33057 11.8225 3.33057 12C3.33057 12.1775 3.40109 12.3478 3.52663 12.4733C3.65216 12.5989 3.82243 12.6694 3.99996 12.6694C4.1775 12.6694 4.34776 12.5989 4.47329 12.4733L7.52663 9.41333L8.47329 10.36L9.41329 11.3333C9.47527 11.3958 9.549 11.4454 9.63024 11.4793C9.71148 11.5131 9.79862 11.5305 9.88663 11.5305C9.97463 11.5305 10.0618 11.5131 10.143 11.4793C10.2243 11.4454 10.298 11.3958 10.36 11.3333C10.4841 11.2084 10.5538 11.0395 10.5538 10.8633C10.5538 10.6872 10.4841 10.5182 10.36 10.3933L9.88663 9.92L13.22 6.62C13.4037 6.42776 13.5473 6.20081 13.6424 5.9524C13.7374 5.704 13.7819 5.43914 13.7733 5.17333ZM12.24 5.64L8.93996 8.94L7.05996 7.06L10.36 3.76C10.483 3.63439 10.6508 3.5625 10.8266 3.56C10.9148 3.56036 11.0021 3.57823 11.0833 3.61256C11.1646 3.64689 11.2382 3.69701 11.3 3.76L12.24 4.7C12.303 4.76174 12.3531 4.83537 12.3874 4.91662C12.4217 4.99787 12.4396 5.08513 12.44 5.17333C12.4375 5.34918 12.3656 5.51691 12.24 5.64Z" fill="#DDDDDD"/>
</svg>
