<svg width="20" height="20" viewBox="0 0 20 20" fill="none" xmlns="http://www.w3.org/2000/svg">
<path d="M10 7.49999C9.50558 7.49999 9.02223 7.64662 8.61111 7.92132C8.19999 8.19602 7.87955 8.58647 7.69034 9.04329C7.50112 9.5001 7.45161 10.0028 7.54807 10.4877C7.64453 10.9727 7.88264 11.4181 8.23227 11.7678C8.5819 12.1174 9.02736 12.3555 9.51231 12.452C9.99726 12.5484 10.4999 12.4989 10.9567 12.3097C11.4136 12.1205 11.804 11.8 12.0787 11.3889C12.3534 10.9778 12.5 10.4944 12.5 9.99999C12.5 9.33695 12.2366 8.70107 11.7678 8.23223C11.299 7.76339 10.6631 7.49999 10 7.49999ZM10 10.8333C9.83522 10.8333 9.6741 10.7845 9.53706 10.6929C9.40002 10.6013 9.29321 10.4712 9.23013 10.3189C9.16706 10.1666 9.15056 9.99907 9.18271 9.83742C9.21487 9.67577 9.29423 9.52728 9.41078 9.41074C9.52732 9.29419 9.67581 9.21483 9.83746 9.18267C9.99911 9.15052 10.1667 9.16702 10.3189 9.23009C10.4712 9.29317 10.6014 9.39998 10.6929 9.53702C10.7845 9.67406 10.8334 9.83518 10.8334 9.99999C10.8334 10.221 10.7456 10.433 10.5893 10.5892C10.433 10.7455 10.221 10.8333 10 10.8333ZM17.3417 10.675C17.2058 10.5209 17.1316 10.3221 17.1334 10.1167V9.88333C17.1316 9.6779 17.2058 9.47906 17.3417 9.32499L17.875 8.72499C18.2838 8.26616 18.5093 7.67284 18.5084 7.05833C18.5043 6.62023 18.3897 6.19026 18.175 5.80833L17.7084 4.97499C17.4888 4.59471 17.173 4.27896 16.7926 4.05953C16.4123 3.84009 15.9808 3.72471 15.5417 3.72499C15.3738 3.7251 15.2063 3.74185 15.0417 3.77499L14.2584 3.93333H14.0834C13.9405 3.93111 13.8003 3.89391 13.675 3.82499L13.4667 3.69999C13.3055 3.62132 13.174 3.49272 13.0917 3.33333L12.8334 2.57499C12.6605 2.08602 12.3398 1.66291 11.9158 1.36429C11.4917 1.06568 10.9853 0.906328 10.4667 0.908328H9.53337C9.01874 0.903868 8.51527 1.05835 8.0917 1.35067C7.66813 1.64299 7.34509 2.05892 7.1667 2.54166L6.90837 3.33333C6.8437 3.52687 6.71027 3.68995 6.53337 3.79166L6.33337 3.91666C6.20471 3.98446 6.06209 4.02154 5.9167 4.02499H5.75003L5.00004 3.81666C4.83543 3.78352 4.66794 3.76677 4.50004 3.76666C4.05552 3.7573 3.61656 3.86665 3.22838 4.08344C2.84021 4.30023 2.51687 4.61662 2.2917 4.99999L1.82504 5.83333C1.56348 6.28825 1.45171 6.81394 1.50555 7.33592C1.5594 7.8579 1.77613 8.34971 2.12504 8.74166L2.65837 9.34166C2.79426 9.49573 2.86845 9.69457 2.8667 9.89999V10.1333C2.86845 10.3388 2.79426 10.5376 2.65837 10.6917L2.12504 11.2917C1.71626 11.7505 1.4908 12.3438 1.4917 12.9583C1.49572 13.3964 1.61038 13.8264 1.82504 14.2083L2.2917 15.0417C2.51126 15.4219 2.82711 15.7377 3.20746 15.9571C3.58781 16.1766 4.01925 16.2919 4.45837 16.2917C4.62628 16.2915 4.79376 16.2748 4.95837 16.2417L5.7417 16.0833H5.90837C6.05128 16.0855 6.19148 16.1227 6.3167 16.1917L6.52503 16.3167C6.70193 16.4184 6.83537 16.5815 6.90003 16.775L7.1667 17.5C7.33958 17.989 7.66025 18.4121 8.08428 18.7107C8.50832 19.0093 9.01474 19.1687 9.53337 19.1667H10.4667C10.9853 19.1687 11.4917 19.0093 11.9158 18.7107C12.3398 18.4121 12.6605 17.989 12.8334 17.5L13.0917 16.7417C13.1564 16.5481 13.2898 16.385 13.4667 16.2833L13.6667 16.1583C13.7954 16.0905 13.938 16.0534 14.0834 16.05H14.25L15.0417 16.2083C15.2063 16.2415 15.3738 16.2582 15.5417 16.2583C15.9808 16.2586 16.4123 16.1432 16.7926 15.9238C17.173 15.7044 17.4888 15.3886 17.7084 15.0083L18.175 14.175C18.3897 13.7931 18.5043 13.3631 18.5084 12.925C18.5093 12.3105 18.2838 11.7172 17.875 11.2583L17.3417 10.675ZM16.1 11.775L16.6334 12.375C16.7693 12.5291 16.8434 12.7279 16.8417 12.9333C16.8402 13.0801 16.7999 13.2238 16.725 13.35L16.2584 14.1833C16.1857 14.3093 16.0812 14.414 15.9555 14.4871C15.8298 14.5602 15.6871 14.5991 15.5417 14.6H15.375L14.5917 14.4417C13.9907 14.317 13.3648 14.4179 12.8334 14.725L12.6334 14.8417C12.1027 15.1468 11.7024 15.636 11.5084 16.2167L11.2584 16.9833C11.2025 17.1488 11.096 17.2926 10.9539 17.3943C10.8118 17.496 10.6414 17.5504 10.4667 17.55H9.53337C9.35866 17.5504 9.18824 17.496 9.04618 17.3943C8.90412 17.2926 8.79761 17.1488 8.7417 16.9833L8.4917 16.2167C8.29769 15.636 7.8974 15.1468 7.3667 14.8417L7.15837 14.725C6.78061 14.5075 6.35257 14.3926 5.9167 14.3917C5.74603 14.3918 5.57578 14.4085 5.40837 14.4417L4.62504 14.6H4.45837C4.31153 14.6006 4.16714 14.5623 4.03982 14.4892C3.91251 14.416 3.80679 14.3105 3.73337 14.1833L3.27504 13.35C3.20014 13.2238 3.15989 13.0801 3.15837 12.9333C3.1473 12.7322 3.20947 12.5338 3.33337 12.375L3.8667 11.775C4.27548 11.3162 4.50094 10.7228 4.50004 10.1083V9.87499C4.50094 9.26048 4.27548 8.66716 3.8667 8.20833L3.33337 7.62499C3.19748 7.47092 3.12328 7.27209 3.12504 7.06666C3.13943 6.92256 3.19113 6.7847 3.27504 6.66666L3.7417 5.83333C3.81441 5.70738 3.91882 5.60265 4.04455 5.52956C4.17027 5.45646 4.31294 5.41754 4.45837 5.41666H4.62504L5.40837 5.57499C5.57573 5.60852 5.74602 5.62527 5.9167 5.62499C6.35257 5.62402 6.78061 5.50911 7.15837 5.29166L7.3667 5.17499C7.89117 4.87801 8.29069 4.40154 8.4917 3.83333L8.7417 3.06666C8.79761 2.90114 8.90412 2.75738 9.04618 2.6557C9.18824 2.55401 9.35866 2.49954 9.53337 2.49999H10.4667C10.6414 2.49954 10.8118 2.55401 10.9539 2.6557C11.096 2.75738 11.2025 2.90114 11.2584 3.06666L11.5084 3.83333C11.7024 4.41394 12.1027 4.90319 12.6334 5.20833L12.8417 5.32499C13.2195 5.54245 13.6475 5.65736 14.0834 5.65833C14.2541 5.6586 14.4243 5.64186 14.5917 5.60833L15.375 5.44999H15.5417C15.6885 5.44941 15.8329 5.48764 15.9602 5.56081C16.0876 5.63398 16.1933 5.73949 16.2667 5.86666L16.725 6.69999C16.7999 6.82619 16.8402 6.96992 16.8417 7.11666C16.8434 7.32209 16.7693 7.52092 16.6334 7.67499L16.1 8.27499C15.6913 8.73383 15.4658 9.32715 15.4667 9.94166V10.175C15.4658 10.7895 15.6913 11.3828 16.1 11.8417" fill="#CCCCCC"/>
</svg>
