<svg width="87" height="20" viewBox="0 0 87 20" fill="none" xmlns="http://www.w3.org/2000/svg">
<path d="M80.2776 16.138V5.83934H82.631V7.55578H82.7383C82.926 6.96129 83.2479 6.50312 83.7038 6.18129C84.1642 5.85499 84.6894 5.69183 85.2794 5.69183C85.4135 5.69183 85.5633 5.69854 85.7287 5.71195C85.8985 5.72089 86.0393 5.73653 86.1511 5.75888V7.9916C86.0483 7.95584 85.8851 7.92455 85.6616 7.89773C85.4426 7.86644 85.2303 7.8508 85.0247 7.8508C84.5821 7.8508 84.1843 7.9469 83.8312 8.13911C83.4825 8.32684 83.2076 8.58833 83.0065 8.92357C82.8054 9.25882 82.7048 9.64546 82.7048 10.0835V16.138H80.2776Z" fill="white"/>
<path d="M73.8322 16.3391C72.7996 16.3391 71.9079 16.1246 71.1569 15.6955C70.4104 15.2619 69.8361 14.6495 69.4338 13.8584C69.0315 13.0627 68.8303 12.1263 68.8303 11.049C68.8303 9.98965 69.0315 9.05991 69.4338 8.2598C69.8405 7.45521 70.4082 6.82943 71.1368 6.38244C71.8654 5.93098 72.7214 5.70525 73.7048 5.70525C74.3395 5.70525 74.9385 5.80805 75.5017 6.01367C76.0693 6.21481 76.57 6.52771 77.0036 6.95235C77.4416 7.37699 77.7858 7.91785 78.0361 8.57492C78.2864 9.22753 78.4116 10.0053 78.4116 10.9082V11.6525H69.9702V10.0165H76.085C76.0805 9.5516 75.9799 9.13813 75.7833 8.77607C75.5866 8.40954 75.3117 8.12123 74.9586 7.91114C74.6099 7.70106 74.2032 7.59601 73.7383 7.59601C73.2421 7.59601 72.8063 7.7167 72.4308 7.95808C72.0554 8.19498 71.7626 8.50788 71.5525 8.89676C71.3469 9.28117 71.2418 9.70357 71.2374 10.164V11.5921C71.2374 12.1911 71.3469 12.7051 71.5659 13.1342C71.7849 13.5589 72.0911 13.8852 72.4845 14.1131C72.8778 14.3366 73.3382 14.4484 73.8657 14.4484C74.2188 14.4484 74.5384 14.3992 74.8245 14.3009C75.1105 14.1981 75.3586 14.0483 75.5687 13.8516C75.7788 13.655 75.9375 13.4114 76.0448 13.1208L78.311 13.3756C78.168 13.9746 77.8953 14.4975 77.493 14.9445C77.0952 15.3871 76.5856 15.7312 75.9643 15.9771C75.343 16.2185 74.6323 16.3391 73.8322 16.3391Z" fill="white"/>
<path d="M67.5409 5.83933V7.71669H61.6205V5.83933H67.5409ZM63.0822 3.37195H65.5094V13.0404C65.5094 13.3667 65.5585 13.617 65.6569 13.7913C65.7597 13.9612 65.8938 14.0774 66.0591 14.1399C66.2245 14.2025 66.4078 14.2338 66.6089 14.2338C66.7609 14.2338 66.8995 14.2226 67.0246 14.2003C67.1543 14.1779 67.2526 14.1578 67.3197 14.1399L67.7287 16.0374C67.599 16.0821 67.4135 16.1313 67.1722 16.1849C66.9352 16.2386 66.6447 16.2699 66.3005 16.2788C65.6926 16.2967 65.1451 16.205 64.6578 16.0039C64.1706 15.7983 63.784 15.4809 63.4979 15.0518C63.2163 14.6227 63.0777 14.0863 63.0822 13.4426V3.37195Z" fill="white"/>
<path d="M56.1808 16.3391C55.1527 16.3391 54.2699 16.1134 53.5324 15.662C52.7993 15.2105 52.2339 14.5869 51.836 13.7913C51.4427 12.9912 51.246 12.0704 51.246 11.0289C51.246 9.98294 51.4471 9.05991 51.8494 8.2598C52.2517 7.45521 52.8194 6.82943 53.5525 6.38244C54.29 5.93098 55.1616 5.70525 56.1674 5.70525C57.0032 5.70525 57.743 5.85946 58.3867 6.16788C59.0348 6.47183 59.5511 6.90318 59.9355 7.46192C60.3199 8.01619 60.5389 8.66432 60.5926 9.40633H58.2727C58.1788 8.91017 57.9553 8.4967 57.6022 8.16593C57.2536 7.83068 56.7864 7.66306 56.2009 7.66306C55.7047 7.66306 55.2689 7.79716 54.8934 8.06535C54.518 8.32908 54.2252 8.70902 54.0151 9.20518C53.8095 9.70134 53.7067 10.2958 53.7067 10.9887C53.7067 11.6904 53.8095 12.2939 54.0151 12.799C54.2207 13.2996 54.509 13.6863 54.88 13.9589C55.2555 14.2271 55.6958 14.3612 56.2009 14.3612C56.5585 14.3612 56.8781 14.2942 57.1597 14.1601C57.4458 14.0215 57.6849 13.8226 57.8771 13.5633C58.0693 13.3041 58.2012 12.989 58.2727 12.618H60.5926C60.5345 13.3465 60.3199 13.9924 59.9489 14.5557C59.5779 15.1144 59.0728 15.5524 58.4336 15.8698C57.7944 16.1827 57.0435 16.3391 56.1808 16.3391Z" fill="white"/>
<path d="M45.243 16.3391C44.2105 16.3391 43.3188 16.1246 42.5678 15.6955C41.8213 15.2619 41.247 14.6495 40.8447 13.8584C40.4424 13.0627 40.2412 12.1263 40.2412 11.049C40.2412 9.98965 40.4424 9.05991 40.8447 8.2598C41.2514 7.45521 41.8191 6.82943 42.5477 6.38244C43.2763 5.93098 44.1323 5.70525 45.1157 5.70525C45.7504 5.70525 46.3494 5.80805 46.9126 6.01367C47.4802 6.21481 47.9809 6.52771 48.4144 6.95235C48.8525 7.37699 49.1967 7.91785 49.447 8.57492C49.6973 9.22753 49.8225 10.0053 49.8225 10.9082V11.6525H41.3811V10.0165H47.4959C47.4914 9.5516 47.3908 9.13813 47.1942 8.77607C46.9975 8.40954 46.7226 8.12123 46.3695 7.91114C46.0208 7.70106 45.6141 7.59601 45.1492 7.59601C44.653 7.59601 44.2172 7.7167 43.8417 7.95808C43.4663 8.19498 43.1735 8.50788 42.9634 8.89676C42.7578 9.28117 42.6527 9.70357 42.6483 10.164V11.5921C42.6483 12.1911 42.7578 12.7051 42.9768 13.1342C43.1958 13.5589 43.502 13.8852 43.8954 14.1131C44.2887 14.3366 44.7491 14.4484 45.2766 14.4484C45.6297 14.4484 45.9493 14.3992 46.2354 14.3009C46.5214 14.1981 46.7695 14.0483 46.9796 13.8516C47.1897 13.655 47.3484 13.4114 47.4557 13.1208L49.7219 13.3756C49.5789 13.9746 49.3062 14.4975 48.9039 14.9445C48.5061 15.3871 47.9965 15.7312 47.3752 15.9771C46.7539 16.2185 46.0432 16.3391 45.243 16.3391Z" fill="white"/>
<path d="M29.0705 20V5.83934H31.4574V7.54238H31.5982C31.7234 7.29206 31.9 7.0261 32.1279 6.7445C32.3559 6.45842 32.6643 6.21481 33.0532 6.01367C33.4421 5.80805 33.9382 5.70525 34.5417 5.70525C35.3373 5.70525 36.0547 5.90863 36.6939 6.31539C37.3376 6.71768 37.8472 7.31441 38.2226 8.10558C38.6026 8.89229 38.7926 9.85779 38.7926 11.0021C38.7926 12.133 38.6071 13.094 38.236 13.8852C37.865 14.6763 37.3599 15.2798 36.7208 15.6955C36.0816 16.1112 35.3574 16.319 34.5484 16.319C33.9584 16.319 33.4689 16.2207 33.08 16.024C32.6911 15.8273 32.3782 15.5904 32.1413 15.3133C31.9089 15.0317 31.7279 14.7657 31.5982 14.5154H31.4977V20H29.0705ZM31.4507 10.9887C31.4507 11.6547 31.5446 12.238 31.7323 12.7386C31.9245 13.2393 32.1994 13.6304 32.557 13.912C32.9191 14.1891 33.3571 14.3277 33.8712 14.3277C34.4076 14.3277 34.8568 14.1847 35.2189 13.8986C35.5809 13.608 35.8536 13.2124 36.0369 12.7118C36.2246 12.2067 36.3185 11.6323 36.3185 10.9887C36.3185 10.3495 36.2268 9.7818 36.0436 9.28564C35.8603 8.78948 35.5876 8.4006 35.2256 8.11899C34.8635 7.83739 34.412 7.69659 33.8712 7.69659C33.3527 7.69659 32.9124 7.83292 32.5503 8.10558C32.1883 8.37825 31.9134 8.76043 31.7256 9.25211C31.5424 9.7438 31.4507 10.3227 31.4507 10.9887Z" fill="white"/>
<path d="M27.0352 8.56151L24.8226 8.80289C24.76 8.57939 24.6505 8.36931 24.494 8.17263C24.342 7.97596 24.1364 7.81728 23.8772 7.69659C23.6179 7.5759 23.3006 7.51556 22.9251 7.51556C22.42 7.51556 21.9953 7.62507 21.6512 7.84409C21.3115 8.06312 21.1438 8.34696 21.1483 8.69561C21.1438 8.99509 21.2533 9.2387 21.4768 9.42644C21.7048 9.61418 22.0803 9.76839 22.6033 9.88908L24.3599 10.2645C25.3344 10.4746 26.0585 10.8076 26.5323 11.2636C27.0106 11.7195 27.252 12.3162 27.2564 13.0538C27.252 13.7019 27.062 14.2741 26.6865 14.7702C26.3155 15.2619 25.7992 15.6463 25.1377 15.9234C24.4761 16.2006 23.7163 16.3391 22.858 16.3391C21.5975 16.3391 20.5829 16.0754 19.814 15.548C19.0452 15.0161 18.587 14.2763 18.4395 13.3287L20.8064 13.1007C20.9136 13.5656 21.1416 13.9165 21.4902 14.1534C21.8389 14.3903 22.2926 14.5087 22.8513 14.5087C23.4279 14.5087 23.8906 14.3903 24.2392 14.1534C24.5924 13.9165 24.7689 13.6237 24.7689 13.275C24.7689 12.98 24.6549 12.7364 24.427 12.5442C24.2035 12.352 23.8548 12.2045 23.381 12.1017L21.6243 11.7329C20.6365 11.5273 19.9057 11.1809 19.4319 10.6937C18.958 10.202 18.7234 9.58065 18.7278 8.82971C18.7234 8.19498 18.8955 7.64518 19.2441 7.18031C19.5972 6.71097 20.0867 6.34891 20.7125 6.09413C21.3427 5.83487 22.0691 5.70525 22.8916 5.70525C24.0984 5.70525 25.0483 5.96227 25.7411 6.4763C26.4384 6.99034 26.8698 7.68541 27.0352 8.56151Z" fill="white"/>
<path d="M0.387116 7.09994C0.129163 7.00216 0.129162 6.63725 0.387116 6.53946L6.78154 4.11549C6.84999 4.08955 6.92556 4.08955 6.99401 4.11549L13.3884 6.53947C13.6464 6.63725 13.6464 7.00216 13.3884 7.09994L6.99401 9.52391C6.92556 9.54986 6.84999 9.54986 6.78154 9.52391L0.387116 7.09994Z" fill="#98CACE"/>
<path d="M7.26237 19.2446V10.4242C7.26237 10.3005 7.33836 10.1895 7.45367 10.1448L13.3663 7.85079C13.6253 7.75032 13.8697 8.02572 13.7393 8.27095L7.82666 19.3854C7.68005 19.661 7.26237 19.5568 7.26237 19.2446Z" fill="#98CACE"/>
<path d="M6.51314 19.2446V10.4242C6.51314 10.3005 6.43715 10.1895 6.32184 10.1448L0.409221 7.85079C0.150259 7.75032 -0.0942249 8.02572 0.0362315 8.27095L5.94885 19.3854C6.09546 19.661 6.51314 19.5568 6.51314 19.2446Z" fill="#98CACE" fill-opacity="0.33"/>
</svg>
