<svg width="54" height="61" viewBox="0 0 54 61" fill="none" xmlns="http://www.w3.org/2000/svg">
<path d="M2.74084 12.4951C1.77119 12.1275 1.77119 10.7558 2.74084 10.3882L26.7776 1.27647C27.0349 1.17894 27.319 1.17894 27.5763 1.27647L51.6131 10.3882C52.5828 10.7558 52.5828 12.1275 51.6131 12.4951L27.5763 21.6068C27.319 21.7044 27.0349 21.7044 26.7776 21.6068L2.74084 12.4951Z" fill="#98CACE"/>
<path d="M28.5851 58.1471V24.9907C28.5851 24.5258 28.8708 24.1086 29.3042 23.9405L51.5299 15.3174C52.5034 14.9397 53.4224 15.9749 52.932 16.8968L30.7063 58.6762C30.1552 59.7122 28.5851 59.3205 28.5851 58.1471Z" fill="#98CACE"/>
<path d="M25.7687 58.1471V24.9907C25.7687 24.5258 25.4831 24.1086 25.0496 23.9405L2.82394 15.3174C1.85049 14.9397 0.931475 15.9749 1.42186 16.8968L23.6476 58.6762C24.1987 59.7122 25.7687 59.3205 25.7687 58.1471Z" fill="#98CACE" fill-opacity="0.33"/>
</svg>
