<svg width="54" height="15" viewBox="0 0 54 15" fill="none" xmlns="http://www.w3.org/2000/svg">
<path d="M3.84 11.192C3.072 11.192 2.42667 11.048 1.904 10.76C1.392 10.4613 0.949333 10.0667 0.576 9.576L1.488 8.84C1.808 9.24533 2.16533 9.56 2.56 9.784C2.95467 9.99733 3.41333 10.104 3.936 10.104C4.48 10.104 4.90133 9.98667 5.2 9.752C5.50933 9.51733 5.664 9.18667 5.664 8.76C5.664 8.44 5.55733 8.168 5.344 7.944C5.14133 7.70933 4.768 7.54933 4.224 7.464L3.568 7.368C3.184 7.31467 2.832 7.23467 2.512 7.128C2.192 7.01067 1.90933 6.86133 1.664 6.68C1.42933 6.488 1.24267 6.25333 1.104 5.976C0.976 5.69867 0.912 5.368 0.912 4.984C0.912 4.57867 0.986667 4.22667 1.136 3.928C1.28533 3.61867 1.488 3.36267 1.744 3.16C2.01067 2.95733 2.32533 2.808 2.688 2.712C3.05067 2.60533 3.44 2.552 3.856 2.552C4.528 2.552 5.088 2.66933 5.536 2.904C5.99467 3.13867 6.39467 3.464 6.736 3.88L5.888 4.648C5.70667 4.392 5.44 4.16267 5.088 3.96C4.736 3.74667 4.29333 3.64 3.76 3.64C3.22667 3.64 2.82133 3.75733 2.544 3.992C2.27733 4.216 2.144 4.52533 2.144 4.92C2.144 5.32533 2.27733 5.61867 2.544 5.8C2.82133 5.98133 3.216 6.11467 3.728 6.2L4.368 6.296C5.28533 6.43467 5.936 6.70133 6.32 7.096C6.704 7.48 6.896 7.98667 6.896 8.616C6.896 9.416 6.624 10.0453 6.08 10.504C5.536 10.9627 4.78933 11.192 3.84 11.192ZM9.15688 2.744H10.4369V4.088H10.5009C10.7142 3.56533 11.0235 3.18133 11.4289 2.936C11.8449 2.68 12.3409 2.552 12.9169 2.552C13.4289 2.552 13.8929 2.65333 14.3089 2.856C14.7249 3.05867 15.0769 3.34667 15.3649 3.72C15.6635 4.09333 15.8875 4.54667 16.0369 5.08C16.1969 5.61333 16.2769 6.21067 16.2769 6.872C16.2769 7.53333 16.1969 8.13067 16.0369 8.664C15.8875 9.19733 15.6635 9.65067 15.3649 10.024C15.0769 10.3973 14.7249 10.6853 14.3089 10.888C13.8929 11.0907 13.4289 11.192 12.9169 11.192C11.7969 11.192 10.9915 10.68 10.5009 9.656H10.4369V14.2H9.15688V2.744ZM12.5649 10.04C13.2902 10.04 13.8609 9.816 14.2769 9.368C14.6929 8.90933 14.9009 8.312 14.9009 7.576V6.168C14.9009 5.432 14.6929 4.84 14.2769 4.392C13.8609 3.93333 13.2902 3.704 12.5649 3.704C12.2769 3.704 11.9995 3.74667 11.7329 3.832C11.4769 3.90667 11.2529 4.01333 11.0609 4.152C10.8689 4.29067 10.7142 4.46133 10.5969 4.664C10.4902 4.856 10.4369 5.064 10.4369 5.288V8.36C10.4369 8.62667 10.4902 8.86667 10.5969 9.08C10.7142 9.28267 10.8689 9.45867 11.0609 9.608C11.2529 9.74667 11.4769 9.85333 11.7329 9.928C11.9995 10.0027 12.2769 10.04 12.5649 10.04ZM21.5421 11.192C20.9768 11.192 20.4648 11.0907 20.0061 10.888C19.5581 10.6853 19.1688 10.3973 18.8381 10.024C18.5181 9.64 18.2675 9.18667 18.0861 8.664C17.9155 8.13067 17.8301 7.53333 17.8301 6.872C17.8301 6.22133 17.9155 5.62933 18.0861 5.096C18.2675 4.56267 18.5181 4.10933 18.8381 3.736C19.1688 3.352 19.5581 3.05867 20.0061 2.856C20.4648 2.65333 20.9768 2.552 21.5421 2.552C22.0968 2.552 22.5928 2.65333 23.0301 2.856C23.4675 3.05867 23.8408 3.34133 24.1501 3.704C24.4595 4.056 24.6941 4.47733 24.8541 4.968C25.0248 5.45867 25.1101 5.99733 25.1101 6.584V7.192H19.1741V7.576C19.1741 7.928 19.2275 8.25867 19.3341 8.568C19.4515 8.86667 19.6115 9.128 19.8141 9.352C20.0275 9.576 20.2835 9.752 20.5821 9.88C20.8915 10.008 21.2381 10.072 21.6221 10.072C22.1448 10.072 22.5981 9.94933 22.9821 9.704C23.3768 9.45867 23.6808 9.10667 23.8941 8.648L24.8061 9.304C24.5395 9.86933 24.1235 10.328 23.5581 10.68C22.9928 11.0213 22.3208 11.192 21.5421 11.192ZM21.5421 3.624C21.1901 3.624 20.8701 3.688 20.5821 3.816C20.2941 3.93333 20.0435 4.104 19.8301 4.328C19.6275 4.552 19.4675 4.81867 19.3501 5.128C19.2328 5.42667 19.1741 5.75733 19.1741 6.12V6.232H23.7341V6.056C23.7341 5.32 23.5315 4.73333 23.1261 4.296C22.7315 3.848 22.2035 3.624 21.5421 3.624ZM30.2914 11.192C29.7154 11.192 29.198 11.0907 28.7394 10.888C28.2807 10.6853 27.8914 10.3973 27.5714 10.024C27.262 9.65067 27.022 9.19733 26.8514 8.664C26.6914 8.13067 26.6114 7.53333 26.6114 6.872C26.6114 6.21067 26.6914 5.61333 26.8514 5.08C27.022 4.54667 27.262 4.09333 27.5714 3.72C27.8914 3.34667 28.2807 3.05867 28.7394 2.856C29.198 2.65333 29.7154 2.552 30.2914 2.552C31.1127 2.552 31.7687 2.73333 32.2594 3.096C32.7607 3.448 33.134 3.912 33.3794 4.488L32.3074 5.032C32.158 4.60533 31.9127 4.27467 31.5714 4.04C31.23 3.80533 30.8034 3.688 30.2914 3.688C29.9074 3.688 29.5714 3.752 29.2834 3.88C28.9954 3.99733 28.7554 4.168 28.5634 4.392C28.3714 4.60533 28.2274 4.86667 28.1314 5.176C28.0354 5.47467 27.9874 5.80533 27.9874 6.168V7.576C27.9874 8.30133 28.1794 8.89867 28.5634 9.368C28.958 9.82667 29.534 10.056 30.2914 10.056C31.326 10.056 32.0727 9.576 32.5314 8.616L33.4594 9.24C33.1927 9.83733 32.7927 10.312 32.2594 10.664C31.7367 11.016 31.0807 11.192 30.2914 11.192ZM37.0903 11C36.6423 11 36.3009 10.8773 36.0663 10.632C35.8423 10.376 35.7303 10.0453 35.7303 9.64V3.864H34.3703V2.744H35.1383C35.4156 2.744 35.6023 2.69067 35.6983 2.584C35.8049 2.46667 35.8583 2.26933 35.8583 1.992V0.455999H37.0103V2.744H38.8183V3.864H37.0103V9.88H38.6903V11H37.0903ZM43.9171 11.192C43.3518 11.192 42.8398 11.0907 42.3811 10.888C41.9331 10.6853 41.5438 10.3973 41.2131 10.024C40.8931 9.64 40.6425 9.18667 40.4611 8.664C40.2905 8.13067 40.2051 7.53333 40.2051 6.872C40.2051 6.22133 40.2905 5.62933 40.4611 5.096C40.6425 4.56267 40.8931 4.10933 41.2131 3.736C41.5438 3.352 41.9331 3.05867 42.3811 2.856C42.8398 2.65333 43.3518 2.552 43.9171 2.552C44.4718 2.552 44.9678 2.65333 45.4051 2.856C45.8425 3.05867 46.2158 3.34133 46.5251 3.704C46.8345 4.056 47.0691 4.47733 47.2291 4.968C47.3998 5.45867 47.4851 5.99733 47.4851 6.584V7.192H41.5491V7.576C41.5491 7.928 41.6025 8.25867 41.7091 8.568C41.8265 8.86667 41.9865 9.128 42.1891 9.352C42.4025 9.576 42.6585 9.752 42.9571 9.88C43.2665 10.008 43.6131 10.072 43.9971 10.072C44.5198 10.072 44.9731 9.94933 45.3571 9.704C45.7518 9.45867 46.0558 9.10667 46.2691 8.648L47.1811 9.304C46.9145 9.86933 46.4985 10.328 45.9331 10.68C45.3678 11.0213 44.6958 11.192 43.9171 11.192ZM43.9171 3.624C43.5651 3.624 43.2451 3.688 42.9571 3.816C42.6691 3.93333 42.4185 4.104 42.2051 4.328C42.0025 4.552 41.8425 4.81867 41.7251 5.128C41.6078 5.42667 41.5491 5.75733 41.5491 6.12V6.232H46.1091V6.056C46.1091 5.32 45.9065 4.73333 45.5011 4.296C45.1065 3.848 44.5785 3.624 43.9171 3.624ZM49.5944 11V2.744H50.8744V4.264H50.9544C51.1037 3.86933 51.3704 3.51733 51.7544 3.208C52.1384 2.89867 52.6664 2.744 53.3384 2.744H53.8344V4.024H53.0824C52.389 4.024 51.845 4.15733 51.4504 4.424C51.0664 4.68 50.8744 5.00533 50.8744 5.4V11H49.5944Z" fill="white"/>
</svg>
