<svg width="9" height="12" viewBox="0 0 9 12" fill="none" xmlns="http://www.w3.org/2000/svg">
<path d="M8.92199 4.76505C8.87947 4.68521 8.8161 4.6184 8.73862 4.57173C8.66113 4.52506 8.57244 4.50029 8.48199 4.50005H4.98199V1.00005C4.98116 0.893223 4.94615 0.789471 4.88207 0.703995C4.81799 0.618519 4.72822 0.555813 4.62592 0.525065C4.52361 0.494317 4.41415 0.497145 4.31356 0.533133C4.21298 0.56912 4.12657 0.636377 4.06699 0.725047L0.0669874 6.72505C0.0231032 6.80106 0 6.88728 0 6.97505C0 7.06281 0.0231032 7.14904 0.0669874 7.22505C0.106114 7.30314 0.165016 7.36962 0.237827 7.41787C0.310639 7.46612 0.39482 7.49445 0.481987 7.50005H3.98199V11C3.98281 11.1069 4.01783 11.2106 4.08191 11.2961C4.14598 11.3816 4.23575 11.4443 4.33806 11.475C4.44036 11.5058 4.54983 11.5029 4.65041 11.467C4.751 11.431 4.83741 11.3637 4.89699 11.275L8.89699 5.27505C8.9466 5.20013 8.9751 5.11323 8.9795 5.02348C8.9839 4.93373 8.96403 4.84446 8.92199 4.76505V4.76505ZM4.98199 9.35005V7.00005C4.98199 6.86744 4.92931 6.74026 4.83554 6.64649C4.74177 6.55273 4.6146 6.50005 4.48199 6.50005H1.41699L3.98199 2.65005V5.00005C3.98199 5.13265 4.03467 5.25983 4.12843 5.3536C4.2222 5.44737 4.34938 5.50005 4.48199 5.50005H7.54699L4.98199 9.35005Z" fill="#98CACE"/>
</svg>
