<svg width="24" height="25" viewBox="0 0 24 25" fill="none" xmlns="http://www.w3.org/2000/svg">
<path d="M8.38 8.5C8.307 8.41535 8.25142 8.31713 8.21643 8.21097C8.18144 8.10481 8.16774 7.9928 8.1761 7.88133C8.18445 7.76987 8.21472 7.66115 8.26515 7.56139C8.31558 7.46164 8.38519 7.37281 8.47 7.3L11.47 4.72C11.501 4.69638 11.5346 4.67626 11.57 4.66C11.6166 4.62742 11.667 4.60056 11.72 4.58H11.87L12 4.5H12.16H12.31C12.363 4.52056 12.4134 4.54742 12.46 4.58C12.4954 4.59626 12.529 4.61638 12.56 4.64L15.56 7.22C15.6548 7.28943 15.7342 7.37777 15.7931 7.47943C15.852 7.58109 15.8893 7.69386 15.9024 7.81063C15.9156 7.9274 15.9044 8.04563 15.8695 8.15785C15.8346 8.27007 15.7769 8.37385 15.6999 8.46263C15.6229 8.5514 15.5284 8.62325 15.4222 8.67364C15.3161 8.72402 15.2006 8.75185 15.0832 8.75536C14.9657 8.75888 14.8488 8.738 14.7398 8.69404C14.6308 8.65009 14.5322 8.58402 14.45 8.5L13 7.34V15.34C13 15.6052 12.8946 15.8596 12.7071 16.0471C12.5196 16.2346 12.2652 16.34 12 16.34C11.7348 16.34 11.4804 16.2346 11.2929 16.0471C11.1054 15.8596 11 15.6052 11 15.34V7.34L9.58 8.57C9.41158 8.71984 9.19055 8.79664 8.9655 8.78352C8.74046 8.77039 8.52985 8.66841 8.38 8.5ZM20 14.5C19.7348 14.5 19.4804 14.6054 19.2929 14.7929C19.1054 14.9804 19 15.2348 19 15.5V18.5C19 18.7652 18.8946 19.0196 18.7071 19.2071C18.5196 19.3946 18.2652 19.5 18 19.5H6C5.73478 19.5 5.48043 19.3946 5.29289 19.2071C5.10536 19.0196 5 18.7652 5 18.5V15.5C5 15.2348 4.89464 14.9804 4.70711 14.7929C4.51957 14.6054 4.26522 14.5 4 14.5C3.73478 14.5 3.48043 14.6054 3.29289 14.7929C3.10536 14.9804 3 15.2348 3 15.5V18.5C3 19.2956 3.31607 20.0587 3.87868 20.6213C4.44129 21.1839 5.20435 21.5 6 21.5H18C18.7956 21.5 19.5587 21.1839 20.1213 20.6213C20.6839 20.0587 21 19.2956 21 18.5V15.5C21 15.2348 20.8946 14.9804 20.7071 14.7929C20.5196 14.6054 20.2652 14.5 20 14.5Z" fill="#DDDDDD"/>
</svg>
