<svg width="16" height="16" viewBox="0 0 16 16" fill="none" xmlns="http://www.w3.org/2000/svg">
<path d="M8.00004 8.66667C8.65931 8.66667 9.30378 8.47117 9.85194 8.1049C10.4001 7.73863 10.8273 7.21803 11.0796 6.60895C11.3319 5.99986 11.3979 5.32964 11.2693 4.68303C11.1407 4.03643 10.8232 3.44249 10.3571 2.97631C9.89089 2.51014 9.29695 2.19267 8.65034 2.06405C8.00374 1.93543 7.33352 2.00144 6.72443 2.25374C6.11534 2.50603 5.59475 2.93327 5.22848 3.48143C4.8622 4.0296 4.66671 4.67406 4.66671 5.33334C4.66671 6.21739 5.0179 7.06524 5.64302 7.69036C6.26814 8.31548 7.11599 8.66667 8.00004 8.66667V8.66667ZM8.00004 3.33333C8.3956 3.33333 8.78228 3.45063 9.11118 3.6704C9.44008 3.89016 9.69642 4.20252 9.8478 4.56797C9.99918 4.93342 10.0388 5.33555 9.96161 5.72352C9.88444 6.11148 9.69396 6.46784 9.41425 6.74755C9.13455 7.02725 8.77818 7.21774 8.39022 7.29491C8.00226 7.37208 7.60013 7.33247 7.23467 7.18109C6.86922 7.02972 6.55686 6.77337 6.3371 6.44448C6.11734 6.11558 6.00004 5.7289 6.00004 5.33334C6.00004 4.8029 6.21075 4.29419 6.58583 3.91912C6.9609 3.54405 7.46961 3.33333 8.00004 3.33333V3.33333ZM12.6667 12V13.3333C12.6667 13.5101 12.5965 13.6797 12.4714 13.8047C12.3464 13.9298 12.1769 14 12 14C11.8232 14 11.6537 13.9298 11.5286 13.8047C11.4036 13.6797 11.3334 13.5101 11.3334 13.3333V12C11.3334 11.8232 11.2631 11.6536 11.1381 11.5286C11.0131 11.4036 10.8435 11.3333 10.6667 11.3333H5.33337C5.15656 11.3333 4.98699 11.4036 4.86197 11.5286C4.73695 11.6536 4.66671 11.8232 4.66671 12V13.3333C4.66671 13.5101 4.59647 13.6797 4.47145 13.8047C4.34642 13.9298 4.17685 14 4.00004 14C3.82323 14 3.65366 13.9298 3.52864 13.8047C3.40361 13.6797 3.33337 13.5101 3.33337 13.3333V12C3.33337 11.4696 3.54409 10.9609 3.91916 10.5858C4.29423 10.2107 4.80294 10 5.33337 10H10.6667C11.1971 10 11.7058 10.2107 12.0809 10.5858C12.456 10.9609 12.6667 11.4696 12.6667 12Z" fill="#DDDDDD"/>
</svg>
